<svg width="131" height="175" viewBox="0 0 131 175" fill="none" xmlns="http://www.w3.org/2000/svg">
<g id="Layer_1" clip-path="url(#clip0_149_42)">
<path id="Vector" d="M103.817 17.9498C100.689 19.1213 96.4262 20.5856 92.5482 24.459C87.3698 29.6266 82.3194 39.6501 87.4362 47.7841C87.9631 48.6249 90.811 53.1454 95.6003 54.5436C106.498 57.7226 121.403 43.9721 127.302 27.9166C131.247 17.1846 131.342 5.86213 130.715 0.82677C130.207 -3.23553 128.959 8.52152 103.821 17.9498H103.817Z" fill="#C6F200"/>
<path id="Vector_2" d="M20.5336 130.305L2.45871 155.543C-1.61857 161.235 -0.512627 168.982 4.93166 172.846C10.376 176.705 18.0938 175.222 22.1711 169.53L40.3552 144.136C39.515 143.919 38.6749 143.668 37.8442 143.375C30.3969 140.985 24.9289 136.177 20.5288 130.305H20.5336Z" fill="#C6F200"/>
<path id="Vector_3" d="M78.432 49.1206L24.4163 124.547C28.8163 130.419 34.2843 135.227 41.7317 137.617C42.5623 137.91 43.4025 138.161 44.2426 138.378L97.347 64.2267C88.9646 63.6079 80.7578 59.0543 78.432 49.1206Z" fill="#C6F200"/>
</g>
<defs>
<clipPath id="clip0_149_42">
<rect width="131" height="175" fill="white"/>
</clipPath>
</defs>
</svg>
