<svg width="94" height="137" viewBox="0 0 94 137" fill="none" xmlns="http://www.w3.org/2000/svg">
<g id="Layer_1" clip-path="url(#clip0_147_6)">
<g id="_8BkLId.tif">
<path id="Vector" d="M50.0531 54.588C56.208 52.9008 60.8804 54.3958 63.9153 59.8967C71.9506 57.6878 76.301 59.6007 79.1232 66.5874C80.232 66.3769 81.347 66.0687 82.4771 65.965C88.7717 65.3884 93.7995 69.5956 93.9028 75.9355C94.0577 85.4148 94.0304 94.9033 93.8086 104.383C93.6628 110.619 91.4025 116.245 87.8603 121.37C87.3287 122.139 87.0462 123.189 86.9641 124.134C86.8213 125.794 86.9641 127.478 86.9094 129.15C86.7545 133.647 83.7105 136.894 79.2508 136.93C67.4484 137.025 55.6399 137.022 43.8375 136.939C39.3535 136.909 36.3277 133.711 36.1394 129.193C36.112 128.534 36.0391 127.86 36.1394 127.219C36.7135 123.683 35.3556 120.983 33.0437 118.356C29.2706 114.069 25.7861 109.52 22.2225 105.051C15.8216 97.0207 17.1006 86.263 25.4701 80.3258C28.4746 78.1932 29.5835 75.966 29.4832 72.2622C29.2007 61.8218 29.4012 51.3692 29.3769 40.9228C29.3678 36.5599 31.0842 33.1154 35.0487 31.3184C41.477 28.4017 49.1873 31.6204 49.8952 39.5041C50.2779 43.7815 50.0197 48.1169 50.0471 52.4279C50.0501 53.0778 50.0471 53.7276 50.0471 54.591L50.0531 54.588ZM29.2736 84.8687C28.1374 85.9793 27.1896 86.7084 26.4817 87.6298C23.4134 91.6205 23.5532 96.7949 26.8615 100.969C31.4184 106.72 36.0087 112.446 40.6446 118.133C41.7322 119.467 42.2882 120.836 42.2031 122.572C42.1028 124.647 42.1818 126.731 42.1849 128.809C42.1849 130.169 42.8411 130.883 44.2203 130.883C55.725 130.883 67.2266 130.892 78.7313 130.871C80.2624 130.871 80.8244 130.264 80.8548 128.726C80.8913 126.85 80.949 124.967 80.8427 123.097C80.7394 121.267 81.3044 119.799 82.4315 118.356C85.8097 114.045 87.6598 109.087 87.7631 103.599C87.8937 96.7034 87.8178 89.8021 87.8299 82.9069C87.833 80.6767 87.8664 78.4434 87.8178 76.2132C87.757 73.4612 86.0801 71.9052 83.3672 71.9876C80.8974 72.0639 79.3541 73.5954 79.2933 76.146C79.2326 78.6295 79.3085 81.116 79.2356 83.5995C79.1931 85.0548 78.4245 86.1074 76.9936 86.504C75.6083 86.8884 74.4235 86.3789 73.7491 85.1738C73.3541 84.4721 73.2509 83.5324 73.2417 82.6964C73.1931 78.3854 73.2326 74.0744 73.2053 69.7634C73.1992 69.0129 73.1506 68.2197 72.9045 67.524C72.218 65.5836 70.2281 64.6409 67.9345 65.0589C65.9932 65.4128 64.7082 66.9047 64.6839 69.0556C64.6353 73.5192 64.6717 77.9827 64.6565 82.4463C64.6565 83.1022 64.6474 83.7826 64.4712 84.405C64.0884 85.7596 63.1467 86.5406 61.7219 86.6108C60.4034 86.6749 59.1153 85.7352 58.7963 84.4202C58.6323 83.7399 58.611 83.0137 58.608 82.309C58.5928 76.323 58.6232 70.3401 58.5867 64.3541C58.5715 61.4831 56.7518 59.8082 53.963 59.9668C51.5387 60.1072 50.0653 61.7516 50.0562 64.4609C50.0319 70.395 50.0501 76.3291 50.041 82.2632C50.041 82.9191 50.0379 83.5904 49.9043 84.228C49.6096 85.6559 48.3671 86.6322 46.9787 86.6169C45.5934 86.6016 44.3904 85.604 44.12 84.1578C44.0015 83.5171 43.9955 82.849 43.9955 82.19C43.9894 68.6987 43.9924 55.2073 43.9894 41.716C43.9894 41.1089 44.0107 40.4926 43.9378 39.8916C43.7129 37.9969 42.358 36.6514 40.4806 36.4074C37.3393 35.9985 35.4437 37.7223 35.4406 41.054C35.4315 57.8922 35.4376 74.7334 35.4346 91.5717C35.4346 92.13 35.4589 92.6913 35.392 93.2436C35.1794 95.0406 33.9186 96.2823 32.3632 96.2671C30.7014 96.2518 29.4711 94.9887 29.4042 93.0544C29.3313 90.9767 29.386 88.896 29.3739 86.8152C29.3739 86.3301 29.3222 85.845 29.2645 84.8596L29.2736 84.8687Z" fill="#C6F200"/>
<path id="Vector_2" d="M52.7174 28.023C50.0957 28.0017 48.6648 25.6036 49.7159 23.6602C49.9529 23.2208 50.2901 22.8212 50.6425 22.4672C54.6951 18.3607 58.7477 14.2541 62.8246 10.175C64.5168 8.47863 66.455 8.42981 67.6945 9.97359C68.7182 11.2489 68.7091 12.8079 67.4362 14.1046C63.1132 18.5102 58.7447 22.873 54.3457 27.2023C53.8475 27.6935 53.0394 27.8674 52.7174 28.023Z" fill="#C6F200"/>
<path id="Vector_3" d="M13.5705 8.71973C14.2176 9.10415 15.1046 9.4245 15.7153 10.0286C19.8894 14.1474 24.021 18.3089 28.1344 22.4887C29.6534 24.0325 29.7323 25.9637 28.426 27.2238C27.1744 28.4319 25.379 28.2824 23.8509 26.7661C19.7618 22.7053 15.6758 18.6384 11.6292 14.5379C9.74876 12.631 9.96749 10.1903 12.0333 9.19568C12.4343 9.00347 12.89 8.92719 13.5705 8.72278V8.71973Z" fill="#C6F200"/>
<path id="Vector_4" d="M42.3854 12.4694C42.3854 15.3556 42.4036 18.2418 42.3793 21.128C42.3611 23.3094 41.1307 24.6701 39.2776 24.6305C37.5216 24.5938 36.3429 23.2179 36.3368 21.1188C36.3216 15.2457 36.3216 9.37264 36.3368 3.49955C36.3429 1.40355 37.5216 0.0397717 39.2867 -0.00294168C41.1246 -0.045655 42.3641 1.33338 42.3793 3.50565C42.4006 6.49254 42.3854 9.47942 42.3854 12.4663V12.4694Z" fill="#C6F200"/>
<path id="Vector_5" d="M12.2733 38.8145C9.35383 38.8145 6.43436 38.8297 3.5149 38.8084C1.30936 38.7931 -0.0303771 37.5941 2.35031e-06 35.7239C0.0303818 33.9025 1.33062 32.74 3.45414 32.7339C9.29307 32.7156 15.135 32.7156 20.974 32.7339C23.1552 32.74 24.5223 33.9726 24.4919 35.8215C24.4615 37.6795 23.1279 38.7992 20.8828 38.8114C18.012 38.8267 15.1441 38.8145 12.2733 38.8145Z" fill="#C6F200"/>
<path id="Vector_6" d="M66.5795 32.7278C69.3988 32.7278 72.221 32.7217 75.0402 32.7278C77.3612 32.737 78.7404 33.8994 78.7192 35.8032C78.7009 37.6673 77.3673 38.8023 75.1283 38.8084C69.2863 38.8206 63.4444 38.8328 57.6024 38.8023C55.1174 38.7901 53.6015 36.8008 54.4187 34.7048C54.9625 33.3105 56.0652 32.7278 57.5143 32.7278C60.5371 32.7278 63.5568 32.7278 66.5795 32.7278Z" fill="#C6F200"/>
</g>
</g>
<defs>
<clipPath id="clip0_147_6">
<rect width="94" height="137" fill="white"/>
</clipPath>
</defs>
</svg>
